<?xml version="1.0" encoding="UTF-8"?>
<svg width="51px" height="21px" viewBox="0 0 51 21" version="1.1" xmlns="http://www.w3.org/2000/svg" xmlns:xlink="http://www.w3.org/1999/xlink">
    <!-- Generator: Sketch 53.2 (72643) - https://sketchapp.com -->
    <title>Group 3</title>
    <desc>Created with Sketch.</desc>
    <g id="Page-1" stroke="none" stroke-width="1" fill="none" fill-rule="evenodd">
        <g id="Design" transform="translate(-991.000000, -740.000000)" fill="#FFFFFF">
            <g id="Group-3" transform="translate(1018.000000, 751.000000) rotate(-285.000000) translate(-1018.000000, -751.000000) translate(1007.000000, 726.000000)">
                <path d="M7.43528475,0 C6.82097158,0.437260575 6.21426303,1.47003833 6.3720969,2.27064079 C7.51410096,2.90204645 8.66547232,3.37479031 9.32506075,4.46823117 C9.77121589,5.21748996 10.1261155,6.07973957 10.3968605,7.05011768 C8.97706075,8.11149045 8.46563672,9.96368318 8.40122398,11.6840726 C7.39675798,13.2843514 6.92854437,15.3318469 7.44112672,17.4448099 C10.5408448,30.2156666 7.76439908,39.445141 1.06723722,45.7576347 C-0.712598984,46.884996 -0.153029079,50 1.90732232,50 C2.17761407,50 2.4733889,49.9464567 2.7934381,49.8277932 C11.7437867,46.6216208 17.3740843,38.3761274 19.4947188,30.5978789 C21.6288502,22.765566 21.0336241,13.6010382 16.5363158,9.69341979 C16.341315,9.52381779 16.1416304,9.37395446 15.9383199,9.24284575 C15.0552258,7.60662061 13.5573149,6.36285334 12.1681855,6.36285334 C12.1431054,6.36285334 12.1182266,6.36325853 12.0932975,6.36406892 C11.7787378,5.25279959 11.3566052,4.22256876 10.8021722,3.30046643 C9.97200837,1.90949852 8.86263875,0.790241113 7.43528475,0" id="Fill-1"></path>
            </g>
        </g>
    </g>
</svg>