<?xml version="1.0" encoding="UTF-8"?>
<svg width="32px" height="32px" viewBox="0 0 32 32" version="1.1" xmlns="http://www.w3.org/2000/svg" xmlns:xlink="http://www.w3.org/1999/xlink">
    <!-- Generator: Sketch 53.2 (72643) - https://sketchapp.com -->
    <title>Group 3</title>
    <desc>Created with Sketch.</desc>
    <defs>
        <polygon id="path-1" points="0 0 32 0 32 32 0 32"></polygon>
    </defs>
    <g id="Page-1" stroke="none" stroke-width="1" fill="none" fill-rule="evenodd">
        <g id="Design" transform="translate(-660.000000, -1036.000000)">
            <g id="Group-3" transform="translate(660.000000, 1036.000000)">
                <mask id="mask-2" fill="white">
                    <use xlink:href="#path-1"></use>
                </mask>
                <g id="Clip-2"></g>
                <path d="M16.0005248,0 C7.16422784,0 0,7.16334534 0,15.9998834 C0,22.5514235 3.93974801,28.179658 9.57733954,30.6542852 C9.53232184,29.5370351 9.56929233,28.1958686 9.85584279,26.9803053 C10.1635026,25.6813563 11.9146442,18.2620231 11.9146442,18.2620231 C11.9146442,18.2620231 11.4034718,17.2405207 11.4034718,15.7304838 C11.4034718,13.3595347 12.7777944,11.5887284 14.4892832,11.5887284 C15.9445443,11.5887284 16.6475667,12.6818374 16.6475667,13.9906993 C16.6475667,15.453737 15.7145575,17.6420543 15.2346409,19.6688485 C14.8337968,21.3660656 16.0856619,22.7503827 17.7600636,22.7503827 C20.7916437,22.7503827 22.8333011,18.8569179 22.8333011,14.2437716 C22.8333011,10.7371459 20.4713883,8.11242474 16.1755807,8.11242474 C11.3220668,8.11242474 8.29841716,11.731825 8.29841716,15.774684 C8.29841716,17.1685642 8.70940772,18.1516976 9.35318408,18.9127804 C9.64929787,19.2624167 9.69035028,19.4031809 9.58317085,19.8045979 C9.50643084,20.0989548 9.33020872,20.8076738 9.25720075,21.088619 C9.15072108,21.4937679 8.82241846,21.6386139 8.45609572,21.4889864 C6.22060565,20.57641 5.17936738,18.128373 5.17936738,15.3764159 C5.17936738,10.8313775 9.01263571,5.38157645 16.6146781,5.38157645 C22.7234393,5.38157645 26.7440092,9.80194469 26.7440092,14.5469919 C26.7440092,20.8234179 23.2545548,25.512486 18.1107584,25.512486 C16.3834085,25.512486 14.7585729,24.5786842 14.2019163,23.5182297 C14.2019163,23.5182297 13.272989,27.2045716 13.0762407,27.9164395 C12.7370919,29.1500794 12.0730225,30.382903 11.4658668,31.343878 C12.9050335,31.7687362 14.4250221,32 16.0005248,32 C24.836122,32 32,24.836538 32,15.9998834 C32,7.16334534 24.836122,0 16.0005248,0" id="Fill-1" fill="#FFFFFF" mask="url(#mask-2)"></path>
            </g>
        </g>
    </g>
</svg>