<?xml version="1.0" encoding="UTF-8"?>
<svg width="147px" height="50px" viewBox="0 0 147 50" version="1.1" xmlns="http://www.w3.org/2000/svg" xmlns:xlink="http://www.w3.org/1999/xlink">
    <!-- Generator: Sketch 53.2 (72643) - https://sketchapp.com -->
    <title>logo</title>
    <desc>Created with Sketch.</desc>
    <defs>
        <polygon id="path-1" points="0 0.586597132 70.314609 0.586597132 70.314609 41.0253629 0 41.0253629"></polygon>
    </defs>
    <g id="Page-1" stroke="none" stroke-width="1" fill="none" fill-rule="evenodd">
        <g id="Design" transform="translate(-135.000000, -3807.000000)">
            <g id="Group-10" transform="translate(0.000000, 3747.000000)">
                <g id="logo" transform="translate(135.000000, 60.000000)">
                    <g id="Group-3" transform="translate(0.000000, 8.974359)">
                        <mask id="mask-2" fill="white">
                            <use xlink:href="#path-1"></use>
                        </mask>
                        <g id="Clip-2"></g>
                        <path d="M22.310891,17.916106 C21.8624295,16.8369231 21.6389038,15.7320122 21.6389038,14.6020687 C21.6389038,14.0666493 21.7489038,13.4436158 21.969609,12.7336636 C22.189609,12.0237114 22.5710833,11.6405737 23.1154423,11.5821643 C23.5998654,11.5821643 23.9742885,11.8644763 24.2387115,12.4291004 C24.5031346,12.9944198 24.6864679,13.6424859 24.7901218,14.3739939 C24.8923654,15.1061973 24.9438397,15.7181052 24.9438397,16.2104129 C24.9438397,18.0071969 24.7456987,19.4264059 24.3494167,20.4694307 C23.438391,19.8463972 22.7586474,18.9959844 22.310891,17.916106 M30.5848654,9.23535854 C30.5848654,8.946093 30.6328141,8.65265537 30.7287115,8.35504563 C30.8239038,8.05813125 31.0551859,7.90932638 31.4225577,7.90932638 C31.6425577,7.90932638 31.8117885,8.04005215 31.9295449,8.30080834 C32.0465962,8.56156454 32.1276859,8.84387658 32.1714038,9.14843981 C32.2158269,9.45230769 32.2376859,9.68455454 32.2376859,9.84378966 C32.2376859,10.4814255 32.1862115,11.1691265 32.0832628,11.907588 C31.0840962,11.2706475 30.5848654,10.3799044 30.5848654,9.23535854 M50.2960192,17.916106 C49.8475577,16.8369231 49.6233269,15.7320122 49.6233269,14.6020687 C49.6233269,14.0666493 49.7340321,13.4436158 49.9540321,12.7336636 C50.1747372,12.0237114 50.5562115,11.6405737 51.0998654,11.5821643 C51.5849936,11.5821643 51.9594167,11.8644763 52.2238397,12.4291004 C52.4882628,12.9944198 52.6715962,13.6424859 52.7745449,14.3739939 C52.8774936,15.1061973 52.9289679,15.7181052 52.9289679,16.2104129 C52.9289679,18.0071969 52.7308269,19.4264059 52.3338397,20.4694307 C51.4228141,19.8463972 50.7430705,18.9959844 50.2960192,17.916106 M54.7355064,32.4204085 C49.4759551,32.4204085 43.7989679,32.9453977 37.7024295,33.9960713 C31.605891,35.0460495 25.9796731,35.571734 20.8237756,35.571734 C16.3285833,35.571734 12.4059551,34.0426597 9.05659615,30.9865971 C5.70723718,27.9291439 4.03255769,23.6923772 4.03255769,18.2749066 C4.03255769,17.3041982 4.13550641,16.4711691 4.34140385,15.7758192 C4.3703141,17.8333594 4.82582692,19.5786875 5.70723718,21.0124989 C6.58864744,22.4470056 8.08704487,23.1639113 10.2024295,23.1639113 C11.6860192,23.1639113 12.8868526,22.3489613 13.8049295,20.7190613 C14.3464679,19.7580878 14.7716603,18.8583051 15.105891,18.0065015 C15.1637115,19.3763407 15.589609,20.6467449 16.3941603,21.8163233 C17.2607628,23.0769926 18.4728782,23.7354889 20.0305064,23.7938983 L20.4049295,23.7938983 C22.4462756,23.7938983 24.1357628,23.0262321 25.4726859,21.4908996 C25.82525,21.563216 26.2003782,21.5993742 26.5966603,21.5993742 C28.1098654,21.5416601 29.2810833,20.9839896 30.1117244,19.9263625 C30.9409551,18.8687353 31.51775,17.6595219 31.8414038,16.2973316 C31.9295449,15.9927684 32.0240321,15.6742981 32.1276859,15.3412256 C32.1565962,15.2508301 32.1791603,15.1541764 32.2066603,15.0623903 L32.2595449,14.8850761 C32.2588397,14.8850761 32.2581346,14.8857714 32.2574295,14.8864668 C32.4301859,14.294724 32.5831987,13.6842069 32.70025,13.0375315 C32.9498654,13.0813385 33.2290962,13.1028944 33.5379423,13.1028944 C33.8023654,13.1028944 34.0512756,13.074385 34.2867885,13.0159757 C34.0956987,13.9581747 34.0005064,15.3627814 34.0005064,17.2318818 C34.0005064,18.7241026 34.3269808,20.0890743 34.9813397,21.3274924 C35.6349936,22.5659105 36.7773013,23.2216254 38.4075577,23.2939418 C39.8911474,23.1486136 41.0588397,22.2766449 41.9113397,20.6759496 C42.3964679,19.7629552 42.7842885,18.9014168 43.0931346,18.0802086 C43.1629423,19.4222338 43.5888397,20.6676054 44.3792885,21.8163233 C45.2451859,23.0769926 46.4573013,23.7354889 48.0149295,23.7938983 L48.3893526,23.7938983 C50.4314038,23.7938983 52.1201859,23.0262321 53.4578141,21.4908996 C53.8103782,21.563216 54.1848013,21.5993742 54.5817885,21.5993742 C56.0942885,21.5416601 57.2655064,20.9839896 58.0961474,19.9263625 C58.9260833,18.8687353 59.5021731,17.6595219 59.8258269,16.2973316 L60.2446731,14.8850761 C59.9943526,14.9719948 59.7884551,15.1458322 59.6276859,15.4065884 C59.4655064,15.6673446 59.34775,15.9134985 59.2751218,16.14505 C58.9810833,17.3772099 58.4663397,18.4849022 57.7323013,19.4695176 C56.9975577,20.4548283 55.9476218,20.9763407 54.5817885,21.0340548 C54.3173654,21.0340548 54.0592885,21.0201478 53.8103782,20.9909431 C54.4710833,19.9479183 54.8017885,18.4779487 54.8017885,16.5796436 L54.8017885,16.4496132 C54.8017885,14.8127597 54.5225577,13.4505693 53.9648013,12.3644329 C53.3915321,11.263694 52.4882628,10.712977 51.2542885,10.712977 C50.3284551,10.712977 49.634609,11.1190613 49.1720449,11.9298392 C48.7094808,12.7413125 48.4774936,13.6320556 48.4774936,14.6020687 C48.4774936,17.2534376 49.6818526,19.3978966 52.0912756,21.0340548 C51.5187115,22.1354889 50.85025,22.6855106 50.0865962,22.6855106 C48.9111474,22.6855106 48.0332628,22.1500913 47.4529423,21.0778618 C46.8726218,20.0063277 46.538391,18.7818166 46.45025,17.4057193 C46.4206346,17.043442 46.4065321,16.6957671 46.4065321,16.3626945 C46.4065321,15.4065884 46.5165321,14.5227988 46.7372372,13.7113255 C47.0305705,12.6397914 47.4487115,12.1036767 47.9930705,12.1036767 C48.1982628,12.1036767 48.3597372,12.2051977 48.4774936,12.4075445 C48.5219167,12.4075445 48.5585833,12.382512 48.5881987,12.3317514 C48.617109,12.2809909 48.6319167,12.2198001 48.6319167,12.1467884 C48.6319167,11.7706041 48.3456346,11.5599131 47.7723654,11.5168014 C47.6990321,11.502199 47.6249936,11.4952455 47.5523654,11.4952455 C47.0524295,11.4952455 46.4869167,11.669083 45.8558269,12.0167579 C45.1351859,12.3936375 44.4928141,13.0417036 43.9273013,13.9616515 C43.6198654,14.4623033 43.403391,15.0672577 43.2630705,15.7584355 C43.1960833,15.8912473 43.1403782,16.0205824 43.100891,16.14505 C42.880891,17.0580443 42.4909551,18.1441808 41.9331987,19.4048501 C41.4776859,20.6363146 40.8973654,21.2516993 40.1922372,21.2516993 C39.1789679,21.2516993 38.4773654,20.7267101 38.0881346,19.6760365 C37.6981987,18.6260582 37.4887756,17.3480052 37.4598654,15.8411821 L37.4598654,15.2104998 C37.4598654,14.095854 37.5550577,12.9367058 37.7468526,11.7337505 C37.4380064,11.6760365 37.1362115,11.6468318 36.8428782,11.6468318 C36.3288397,11.6468318 35.8585192,11.7629552 35.4326218,11.9945067 C34.9185833,12.29907 34.4856346,12.4805563 34.1330705,12.5382703 C34.0590321,12.5528727 33.9856987,12.5598262 33.9123654,12.5598262 C33.6042244,12.5598262 33.2361474,12.4583051 32.8109551,12.2552629 C32.9428141,11.3721686 33.0090962,10.5683442 33.0090962,9.84378966 C33.0090962,9.14843981 32.8581987,8.54348544 32.557109,8.02892655 C32.2560192,7.51506302 31.7603141,7.25083007 31.0699936,7.23622773 C29.6301218,7.52618861 28.9101859,8.33766189 28.9101859,9.66995219 C28.9101859,10.5975489 29.2112756,11.3214081 29.8141603,11.8429205 C30.4163397,12.3644329 31.1285192,12.7190613 31.9514038,12.9075011 C31.7751218,14.095854 31.5544167,15.1750369 31.2899936,16.14505 C30.9959551,17.3772099 30.4819167,18.4849022 29.7478782,19.4695176 C29.0131346,20.4548283 27.9631987,20.9763407 26.5966603,21.0340548 C26.3322372,21.0340548 26.0748654,21.0201478 25.82525,20.9909431 C26.4866603,19.9479183 26.8173654,18.4779487 26.8173654,16.5796436 L26.8173654,16.4496132 C26.8173654,14.8127597 26.5374295,13.4505693 25.9796731,12.3644329 C25.407109,11.263694 24.5031346,10.712977 23.2691603,10.712977 C22.3440321,10.712977 21.6501859,11.1190613 21.1869167,11.9298392 C20.7243526,12.7413125 20.4930705,13.6320556 20.4930705,14.6020687 C20.4930705,17.2534376 21.6974295,19.3978966 24.1068526,21.0340548 C23.5335833,22.1354889 22.8651218,22.6855106 22.1014679,22.6855106 C20.9260192,22.6855106 20.0481346,22.1500913 19.4685192,21.0778618 C18.8881987,20.0063277 18.5539679,18.7818166 18.4658269,17.4057193 C18.4362115,17.043442 18.4214038,16.6957671 18.4214038,16.3626945 C18.4214038,15.4065884 18.532109,14.5227988 18.752109,13.7113255 C19.0454423,12.6397914 19.4642885,12.1036767 20.0079423,12.1036767 C20.2131346,12.1036767 20.3753141,12.2051977 20.4930705,12.4075445 C20.5367885,12.4075445 20.5734551,12.382512 20.6030705,12.3317514 C20.6319808,12.2809909 20.6474936,12.2198001 20.6474936,12.1467884 C20.6474936,11.7706041 20.3605064,11.5599131 19.7879423,11.5168014 C19.7139038,11.502199 19.6405705,11.4952455 19.5672372,11.4952455 C19.0673013,11.4952455 18.5024936,11.669083 17.8706987,12.0167579 C17.1507628,12.3936375 16.508391,13.0417036 15.9428782,13.9616515 C15.6410833,14.4525684 15.4260192,15.0415298 15.2849936,15.7160191 C15.2116603,15.8634333 15.1510192,16.0080661 15.1164679,16.14505 C14.9401859,16.8264928 14.6539038,17.6087614 14.2569167,18.4918557 C13.9776859,19.1440939 13.5806987,19.7163668 13.0673654,20.2086745 C12.5526218,20.7016775 11.8919167,20.947136 11.0838397,20.947136 C9.82025,20.947136 8.95364744,20.1613907 8.48403205,18.5899 C8.01371154,17.0184094 7.77890385,15.1750369 7.77890385,13.0597827 C7.77890385,11.0460495 7.9178141,9.01076054 8.19704487,6.95322034 C8.74069872,7.1270578 9.38730128,7.21397653 10.1361474,7.21397653 C11.6197372,7.21397653 12.8466603,6.60554542 13.8162115,5.38868318 C13.8606346,5.28785745 13.8824936,5.20858757 13.8824936,5.15017818 C13.8824936,5.09246415 13.8747372,5.04865711 13.8606346,5.01945241 C13.8014038,4.91862668 13.7132628,4.86369405 13.5962115,4.85674055 C13.4784551,4.84978705 13.3755064,4.91097784 13.2873654,5.04100826 C12.5970449,5.92549326 11.657109,6.36704042 10.4668526,6.36704042 C9.62986538,6.36704042 8.91698077,6.25787049 8.32960897,6.04092134 C8.66666026,3.67951326 8.9903141,1.95574098 9.29916026,0.86890917 C9.21101923,0.768083442 9.08973718,0.695071708 8.9353141,0.651960017 C8.78159615,0.608152977 8.63775,0.586597132 8.50589103,0.586597132 C7.38896795,0.586597132 6.36089103,2.07186441 5.42095513,5.04100826 C4.95063462,4.91097784 4.39992949,4.84561495 3.76813462,4.84561495 C2.28454487,4.84561495 1.05762179,5.46169492 0.0880705128,6.69246415 C0.0295448718,6.77938288 -7.05128205e-05,6.86004346 -7.05128205e-05,6.93166449 C-7.05128205e-05,6.97547153 0.0147371795,7.01858322 0.0443525641,7.06239027 C0.102878205,7.16391134 0.191019231,7.21397653 0.308775641,7.21397653 L0.330634615,7.21397653 C0.433583333,7.21397653 0.536532051,7.149309 0.639480769,7.01858322 C1.31499359,6.13548892 2.24787821,5.69324641 3.43742949,5.69324641 C4.11294231,5.69324641 4.7003141,5.7655628 5.20025,5.91019557 C4.77435256,7.76469361 4.50217308,10.1261017 4.38512179,12.9944198 C4.23775,13.6320556 4.09883974,14.1897262 3.96627564,14.6674316 C3.80480128,15.232751 3.66941667,15.7904216 3.55871154,16.3404433 C3.44871154,16.8911604 3.39371154,17.5357497 3.39371154,18.2749066 C3.39371154,23.9531334 5.2778141,28.5855541 9.04601923,32.1707779 C12.8135192,35.7560017 17.2163397,37.5486136 22.255891,37.5486136 C27.4562115,37.5486136 33.1042885,37.0236245 39.2008269,35.9736462 C45.2973654,34.9229726 50.9524936,34.3979835 56.1683269,34.3979835 C58.9592244,34.3979835 61.5484551,34.9264494 63.9353141,35.9840765 C66.3221731,37.0417036 68.2725577,38.6570013 69.7857628,40.8299696 C69.8590962,40.9606953 69.9472372,41.0253629 70.0501859,41.0253629 C70.1672372,41.0253629 70.2483269,40.9822512 70.29275,40.8953325 C70.3068526,40.8515254 70.314609,40.8084137 70.314609,40.7646067 C70.314609,40.7061973 70.2998013,40.6415298 70.270891,40.5692134 C66.3482628,35.1371404 61.1698013,32.4204085 54.7355064,32.4204085" id="Fill-1" fill="#EA5550" mask="url(#mask-2)"></path>
                    </g>
                    <path d="M124.062183,18.2909091 C124.062183,11.8370629 124.984469,8.60979021 126.829042,8.60979021 C127.330562,8.60979021 127.659241,8.77412587 127.814373,9.1013986 C127.969504,9.42937063 128.046715,9.8048951 128.046715,10.2272727 C127.8845,13.1993007 126.615117,16.7832168 124.239273,20.979021 C124.150728,19.7846154 124.091226,18.8881119 124.062183,18.2909091 M120.365245,27.5566434 C119.243201,29.1594406 118.21041,29.9601399 117.266165,29.9601399 C116.055575,29.9601399 115.355006,28.6202797 115.16304,25.9398601 C115.16304,24.7888112 115.447093,23.6272727 116.015907,22.4538462 C116.583304,21.2811189 117.560843,20.6951049 118.948523,20.6951049 C119.583214,20.6951049 120.232782,20.8916084 120.896516,21.2846154 L120.985061,22.420979 C121.073607,23.5286713 121.220946,24.6503497 121.427787,25.7867133 C121.102649,26.3986014 120.748469,26.9888112 120.365245,27.5566434 M105.24669,29.7202797 C104.331488,29.0937063 103.648627,28.2384615 103.198818,27.1524476 C102.7483,26.0671329 102.52375,24.9559441 102.52375,23.8195804 C102.52375,23.2811189 102.634254,22.6545455 102.855971,21.9405594 C103.07698,21.2265734 103.460203,20.8405594 104.007058,20.7825175 C104.493702,20.7825175 104.869842,21.0664336 105.135478,21.6342657 C105.401113,22.2027972 105.585287,22.8545455 105.689416,23.5902098 C105.792129,24.3265734 105.843839,24.941958 105.843839,25.4370629 C105.843839,27.2440559 105.644789,28.6713287 105.24669,29.7202797 M88.9982992,29.7202797 C88.0830964,29.0937063 87.4002362,28.2384615 86.9504268,27.1524476 C86.5006173,26.0671329 86.2753584,24.9559441 86.2753584,23.8195804 C86.2753584,23.2811189 86.3858628,22.6545455 86.6075799,21.9405594 C86.8285886,21.2265734 87.2125204,20.8405594 87.758667,20.7825175 C88.2453112,20.7825175 88.6221594,21.0664336 88.8877949,21.6342657 C89.1534303,22.2027972 89.3376043,22.8545455 89.441025,23.5902098 C89.5444458,24.3265734 89.5961561,24.941958 89.5961561,25.4370629 C89.5961561,27.2440559 89.3963983,28.6713287 88.9982992,29.7202797 M76.2031694,8.60979021 C76.7053975,8.60979021 77.0333688,8.77412587 77.1884999,9.1013986 C77.343631,9.42937063 77.4208424,9.8048951 77.4208424,10.2272727 L77.4208424,10.6202797 C77.3322972,13.1552448 75.9892442,16.5573427 73.3923918,20.8258741 C73.6721945,12.6818182 74.6093565,8.60979021 76.2031694,8.60979021 M146.131887,19.0776224 C145.925045,15.027972 144.360984,11.3524476 141.395075,8.18391608 C138.428458,5.01538462 133.75044,3.4965035 127.40494,3.4965035 C122.180775,3.4965035 116.506093,4.02517483 110.38231,5.08041958 C104.257818,6.13706294 98.5760521,6.66503497 93.3370121,6.66503497 C90.5333181,6.66503497 87.9322155,6.12937063 85.5337042,5.05874126 C83.1359012,3.98811189 81.1765739,2.36013986 79.6564306,0.174825175 C79.582761,0.0587412587 79.4871323,0 79.3688359,0 C79.2661235,0 79.1917456,0.0433566434 79.1478272,0.130769231 C79.118076,0.174825175 79.1032004,0.218181818 79.1032004,0.262237762 C79.1032004,0.320979021 79.1251596,0.386013986 79.1697864,0.458741259 C83.1096919,5.90769231 88.3118971,8.63146853 94.7756939,8.63146853 C100.058652,8.63146853 105.763086,8.10699301 111.887577,7.05874126 C118.011361,6.00979021 123.664084,5.48531469 128.843621,5.48531469 C136.266539,5.48531469 141.121648,7.5979021 143.408946,11.8223776 C144.885171,14.5321678 145.622575,17.293007 145.622575,20.1048951 C145.622575,21.6636364 145.393774,23.2447552 144.936881,24.8468531 C143.637747,29.3048951 141.195317,32.2328671 137.609592,33.6314685 C139.29195,32.8300699 140.132775,31.6146853 140.132775,29.9825175 C140.132775,28.3944056 139.631255,27.0832168 138.627508,26.048951 C137.72718,25.0587413 137.277371,23.9 137.277371,22.5741259 C137.277371,20.9573427 138.125988,20.1118881 139.823221,20.0391608 C140.073981,20.0391608 140.199361,19.9664336 140.199361,19.820979 C140.199361,19.7622378 140.16961,19.7076923 140.110816,19.6566434 C140.051314,19.6062937 139.970561,19.5734266 139.86714,19.558042 C139.498084,19.5146853 139.107068,19.486014 138.694093,19.4706294 C134.724437,19.5293706 132.245172,21.4965035 131.2563,25.3713287 C131.035291,26.2895105 130.643567,27.3818182 130.083254,28.6496503 C129.935206,28.9699301 129.707114,29.2762238 129.396852,29.5671329 C129.087298,29.8587413 128.747284,30.0041958 128.378936,30.0041958 C126.991257,30.0041958 126.010176,29.0503497 125.434279,27.1412587 C124.991553,25.6993007 124.622497,23.9804196 124.327818,21.9839161 C127.028091,16.9727273 128.45969,13.0608392 128.621904,10.248951 C128.621904,9.65174825 128.492983,9.13846154 128.235139,8.70839161 C127.975879,8.27902098 127.515444,8.06363636 126.85171,8.06363636 C122.96989,8.26783217 120.948227,11.7426573 120.786012,18.4874126 C120.800887,19.2307692 120.822847,19.9370629 120.852598,20.6076923 C120.188155,20.2867133 119.553463,20.1265734 118.948523,20.1265734 C116.985654,20.1853147 115.34013,20.9314685 114.011953,22.3664336 C113.39497,23.0335664 112.921077,23.7881119 112.57823,24.6230769 C112.576813,24.6251748 112.574688,24.6265734 112.573271,24.6286713 C112.411056,24.8909091 112.29276,25.1384615 112.21909,25.3713287 C111.923704,26.6097902 111.407308,27.7244755 110.669904,28.7146853 C109.931792,29.7055944 108.877042,30.2300699 107.504238,30.2881119 C107.238602,30.2881119 106.98005,30.2741259 106.729291,30.2447552 C107.393733,29.1958042 107.725955,27.7167832 107.725955,25.8083916 L107.725955,25.6776224 C107.725955,24.0314685 107.444735,22.6615385 106.884422,21.5685315 C106.309232,20.4615385 105.401113,19.9083916 104.161481,19.9083916 C103.232111,19.9083916 102.534375,20.3160839 102.06969,21.1314685 C101.605005,21.9475524 101.372662,22.8440559 101.372662,23.8195804 C101.372662,26.486014 102.582544,28.6426573 105.003014,30.2881119 C104.427116,31.3958042 103.75559,31.948951 102.988435,31.948951 C101.807596,31.948951 100.925687,31.4104895 100.343414,30.3321678 C99.7597239,29.2545455 99.424669,28.0230769 99.3361238,26.6391608 C99.3063726,26.2748252 99.291497,25.9251748 99.291497,25.5902098 C99.291497,24.6286713 99.4020014,23.7398601 99.6237185,22.9237762 C99.9183968,21.8461538 100.339163,21.3062937 100.88531,21.3062937 C101.091443,21.3062937 101.254366,21.4090909 101.372662,21.6125874 C101.416581,21.6125874 101.453416,21.5874126 101.483167,21.5363636 C101.51221,21.4853147 101.527794,21.4230769 101.527794,21.3503497 C101.527794,20.972028 101.239491,20.7601399 100.664301,20.7167832 C100.589923,20.7020979 100.516254,20.6951049 100.442584,20.6951049 C99.940356,20.6951049 99.3729586,20.8699301 98.7382669,21.2188811 C98.01503,21.5979021 97.3690045,22.2503497 96.8016071,23.1748252 C96.49347,23.6769231 96.2767114,24.2818182 96.1357475,24.9734266 C96.0677448,25.1104895 96.0110759,25.2433566 95.9714077,25.3713287 C95.676021,26.6097902 95.1589173,27.7244755 94.4215132,28.7146853 C93.6834008,29.7055944 92.6286508,30.2300699 91.2558466,30.2881119 C90.9902112,30.2881119 90.7316593,30.2741259 90.4816078,30.2447552 C91.1453423,29.1958042 91.4775637,27.7167832 91.4775637,25.8083916 L91.4775637,25.6776224 C91.4775637,24.0314685 91.1970527,22.6615385 90.6360305,21.5685315 C90.0608412,20.4615385 89.1534303,19.9083916 87.9137981,19.9083916 C86.9837197,19.9083916 86.2866922,20.3160839 85.8220072,21.1314685 C85.3566139,21.9475524 85.1242714,22.8440559 85.1242714,23.8195804 C85.1242714,26.486014 86.3341524,28.6426573 88.7546229,30.2881119 C88.1794336,31.3958042 87.5079071,31.948951 86.7400435,31.948951 C85.5599136,31.948951 84.6772954,31.4104895 84.0950224,30.3321678 C83.5120411,29.2545455 83.1762778,28.0230769 83.0877327,26.6391608 C83.0579815,26.2748252 83.0438143,25.9251748 83.0438143,25.5902098 C83.0438143,24.6286713 83.1543186,23.7398601 83.3753274,22.9237762 C83.670714,21.8461538 84.0907722,21.3062937 84.6376272,21.3062937 C84.8437603,21.3062937 85.005975,21.4090909 85.1242714,21.6125874 C85.1688981,21.6125874 85.2057329,21.5874126 85.2347757,21.5363636 C85.2645269,21.4853147 85.2794025,21.4230769 85.2794025,21.3503497 C85.2794025,20.972028 84.9918078,20.7601399 84.4159101,20.7167832 C84.3422405,20.7020979 84.2678626,20.6951049 84.1949014,20.6951049 C83.6926732,20.6951049 83.1245675,20.8699301 82.4898757,21.2188811 C81.7666389,21.5979021 81.1213217,22.2503497 80.553216,23.1748252 C80.249329,23.6699301 80.0332788,24.265035 79.8923149,24.9461538 C79.8186453,25.0972028 79.7577263,25.2468531 79.7230166,25.393007 C79.1322433,27.0692308 78.2843348,28.3 77.1771661,29.0867133 C76.0707058,29.8727273 74.8232816,30.2664336 73.4363102,30.2664336 C73.347765,28.7076923 73.3038466,27.0538462 73.3038466,25.3055944 C73.3038466,24.1552448 73.3180138,23.0545455 73.347765,22.0055944 C76.3285493,17.1398601 77.8784438,13.3454545 77.9967401,10.6202797 L77.9967401,10.248951 C77.9967401,9.65174825 77.86711,9.13846154 77.6092665,8.70839161 C77.3507146,8.27902098 76.8895714,8.06363636 76.2258369,8.06363636 C72.0783816,8.26783217 69.9532977,14.7727273 69.8505854,27.5783217 C69.8505854,28.293007 69.8647526,29.1741259 69.8945038,30.2223776 L69.6288683,30.2223776 C69.3632328,30.2223776 69.2307692,30.3468531 69.2307692,30.5944056 C69.2449365,30.8125874 69.3781084,30.9216783 69.6288683,30.9216783 L69.916463,30.9216783 C69.9610897,32.1167832 70.0276757,33.5006993 70.1162208,35.0741259 L70.1820984,38.4615385 C71.0526745,38.4615385 71.8460391,38.1370629 72.5621923,37.4888112 C73.2776372,36.8398601 73.6353597,35.7363636 73.6353597,34.1783217 C73.5765657,33.1293706 73.5319389,32.0293706 73.5028961,30.8783217 C75.0818334,30.8496503 76.4503874,30.3944056 77.6092665,29.5125874 C78.4486746,28.8734266 79.1464105,27.9951049 79.7031825,26.8839161 C79.7031825,26.8979021 79.7010574,26.9090909 79.7010574,26.9230769 C79.7010574,28.4237762 80.1359912,29.8076923 81.0072756,31.0748252 C81.8771432,32.3426573 83.0948163,33.0048951 84.6595864,33.0636364 L85.0357262,33.0636364 C87.0871405,33.0636364 88.7836658,32.2916084 90.1274271,30.7468531 C90.4816078,30.8202797 90.8577476,30.8566434 91.2558466,30.8566434 C92.77599,30.7986014 93.952578,30.2377622 94.7870276,29.1741259 C95.2644631,28.5643357 95.6491033,27.8993007 95.9586572,27.1909091 C96.0082425,28.5881119 96.4368011,29.8832168 97.2549584,31.0748252 C98.1255344,32.3426573 99.3432074,33.0048951 100.907269,33.0636364 L101.284117,33.0636364 C103.334823,33.0636364 105.032057,32.2916084 106.37511,30.7468531 C106.729291,30.8202797 107.106139,30.8566434 107.504238,30.8566434 C109.024381,30.7986014 110.200969,30.2377622 111.03471,29.1741259 C111.383933,28.7293706 111.677902,28.251049 111.937163,27.7524476 C111.936454,27.7825175 111.932204,27.8104895 111.931496,27.8405594 L111.931496,28.0594406 C111.931496,29.0643357 112.130545,30.0041958 112.529353,30.8783217 C112.956495,31.7958042 113.812903,32.2552448 115.097162,32.2552448 C116.350962,32.2552448 117.52755,31.7083916 118.627635,30.6160839 C119.727012,29.5230769 120.719426,28.1979021 121.604877,26.6391608 C121.973934,28.3 122.545581,29.6916084 123.320529,30.8125874 C124.095476,31.934965 125.161559,32.5174825 126.519488,32.5608392 C128.024756,32.4146853 129.204886,31.5377622 130.061295,29.927972 C130.916995,28.3181818 131.499976,26.8503497 131.810239,25.5244755 C132.562518,22.5818182 134.207333,20.8258741 136.7461,20.258042 C134.827149,21.2923077 133.868736,22.7706294 133.868736,24.6937063 C133.868736,25.4223776 134.012534,26.0559441 134.300128,26.5951049 C134.587723,27.1342657 134.923486,27.6440559 135.307418,28.1251748 C135.661599,28.6055944 135.978236,29.1013986 136.259456,29.6104895 C136.539258,30.120979 136.679514,30.7181818 136.679514,31.4027972 C136.679514,33.106993 135.81673,33.9594406 134.089745,33.9594406 C133.543599,33.9447552 133.078914,33.872028 132.69569,33.7412587 C132.69569,33.9741259 132.845863,34.1853147 133.149041,34.3748252 C133.451512,34.5643357 133.994116,34.6587413 134.776147,34.6587413 C138.435542,34.4986014 141.298738,32.8741259 143.365028,29.7853147 C145.224476,26.9888112 146.153846,23.7832168 146.153846,20.1706294 C146.153846,19.820979 146.146763,19.4566434 146.131887,19.0776224" id="Fill-4" fill="#EA5550"></path>
                </g>
            </g>
        </g>
    </g>
</svg>